<svg width="1440" height="1024" viewBox="0 0 1440 1024" fill="none" xmlns="http://www.w3.org/2000/svg">
<g clip-path="url(#clip0)">
<rect width="1440" height="1024" fill="white"/>
<circle cx="554.625" cy="598.625" r="53.588" transform="rotate(-55.0377 554.625 598.625)" fill="url(#paint0_linear)"/>
<circle cx="1247.55" cy="567.553" r="140" transform="rotate(-58.4587 1247.55 567.553)" fill="url(#paint1_linear)"/>
<circle cx="583.553" cy="968.553" r="140" transform="rotate(-58.4587 583.553 968.553)" fill="url(#paint2_linear)"/>
<g filter="url(#filter0_d)">
<path d="M1317.44 952.604H1317.48M1332.6 952.604H1332.64M1347.77 952.604H1347.81M1300.38 952.604C1300.36 957.609 1301.53 962.546 1303.79 967.013C1306.46 972.365 1310.58 976.868 1315.67 980.015C1320.75 983.163 1326.62 984.831 1332.6 984.833C1337.61 984.846 1342.55 983.677 1347.01 981.421L1368.63 988.625L1361.42 967.013C1363.68 962.546 1364.85 957.609 1364.83 952.604C1364.83 946.62 1363.16 940.755 1360.02 935.665C1356.87 930.576 1352.37 926.463 1347.01 923.788C1342.55 921.531 1337.61 920.362 1332.6 920.375H1330.71C1322.81 920.811 1315.34 924.147 1309.74 929.744C1304.15 935.341 1300.81 942.805 1300.38 950.708V952.604Z" stroke="white" stroke-width="1.5" stroke-linecap="round" stroke-linejoin="round"/>
</g>
<circle cx="1356.55" cy="18.5526" r="140" transform="rotate(-58.4587 1356.55 18.5526)" fill="url(#paint3_linear)"/>
<circle cx="597.625" cy="455.625" r="53.588" transform="rotate(-55.0377 597.625 455.625)" fill="url(#paint4_linear)"/>
</g>
<defs>
<filter id="filter0_d" x="1285" y="909" width="99" height="99" filterUnits="userSpaceOnUse" color-interpolation-filters="sRGB">
<feFlood flood-opacity="0" result="BackgroundImageFix"/>
<feColorMatrix in="SourceAlpha" type="matrix" values="0 0 0 0 0 0 0 0 0 0 0 0 0 0 0 0 0 0 127 0"/>
<feOffset dy="4"/>
<feGaussianBlur stdDeviation="2"/>
<feColorMatrix type="matrix" values="0 0 0 0 0 0 0 0 0 0 0 0 0 0 0 0 0 0 0.25 0"/>
<feBlend mode="normal" in2="BackgroundImageFix" result="effect1_dropShadow"/>
<feBlend mode="normal" in="SourceGraphic" in2="effect1_dropShadow" result="shape"/>
</filter>
<linearGradient id="paint0_linear" x1="506.91" y1="594.679" x2="604.818" y2="594.312" gradientUnits="userSpaceOnUse">
<stop stop-color="#8DE2E7" stop-opacity="0"/>
<stop offset="1" stop-color="#B8B5FF"/>
</linearGradient>
<linearGradient id="paint1_linear" x1="1122.9" y1="557.244" x2="1378.68" y2="556.285" gradientUnits="userSpaceOnUse">
<stop stop-color="#8DE2E7" stop-opacity="0"/>
<stop offset="1" stop-color="#7868E6"/>
</linearGradient>
<linearGradient id="paint2_linear" x1="458.895" y1="958.244" x2="714.683" y2="957.285" gradientUnits="userSpaceOnUse">
<stop stop-color="#B8B5FF"/>
</linearGradient>
<linearGradient id="paint3_linear" x1="1231.9" y1="8.2444" x2="1487.68" y2="7.28549" gradientUnits="userSpaceOnUse">
<stop stop-color="#8DE2E7" stop-opacity="0"/>
<stop offset="1" stop-color="#7868E6"/>
</linearGradient>
<linearGradient id="paint4_linear" x1="549.91" y1="451.679" x2="647.818" y2="451.312" gradientUnits="userSpaceOnUse">
<stop stop-color="#8DE2E7" stop-opacity="0"/>
<stop offset="1" stop-color="#B8B5FF"/>
</linearGradient>
<clipPath id="clip0">
<rect width="1440" height="1024" fill="white"/>
</clipPath>
</defs>
</svg>
