<svg width="56" height="56" viewBox="0 0 56 56" fill="none" xmlns="http://www.w3.org/2000/svg">
<path d="M21.1068 37.75H34.8932V36.25H21.1068V37.75ZM34.8932 37.75C40.6131 37.75 45.25 42.3869 45.25 48.1068H46.75C46.75 41.5585 41.4415 36.25 34.8932 36.25V37.75ZM21.1068 36.25C14.5585 36.25 9.25 41.5585 9.25 48.1068H10.75C10.75 42.3869 15.3869 37.75 21.1068 37.75V36.25ZM36.25 19C36.25 23.5563 32.5563 27.25 28 27.25V28.75C33.3848 28.75 37.75 24.3848 37.75 19H36.25ZM28 27.25C23.4437 27.25 19.75 23.5563 19.75 19H18.25C18.25 24.3848 22.6152 28.75 28 28.75V27.25ZM19.75 19C19.75 14.4437 23.4437 10.75 28 10.75V9.25C22.6152 9.25 18.25 13.6152 18.25 19H19.75ZM28 10.75C32.5563 10.75 36.25 14.4437 36.25 19H37.75C37.75 13.6152 33.3848 9.25 28 9.25V10.75ZM54.25 28C54.25 42.4975 42.4975 54.25 28 54.25V55.75C43.3259 55.75 55.75 43.3259 55.75 28H54.25ZM28 54.25C13.5025 54.25 1.75 42.4975 1.75 28H0.25C0.25 43.3259 12.6741 55.75 28 55.75V54.25ZM1.75 28C1.75 13.5025 13.5025 1.75 28 1.75V0.25C12.6741 0.25 0.25 12.6741 0.25 28H1.75ZM28 1.75C42.4975 1.75 54.25 13.5025 54.25 28H55.75C55.75 12.6741 43.3259 0.25 28 0.25V1.75Z" fill="#001A72"/>
</svg>
