<svg width="39" height="39" viewBox="0 0 39 39" fill="none" xmlns="http://www.w3.org/2000/svg">
<path d="M15.7662 25.125H23.2338V23.625H15.7662V25.125ZM23.2338 25.125C26.1422 25.125 28.5 27.4828 28.5 30.3912H30C30 26.6543 26.9707 23.625 23.2338 23.625V25.125ZM15.7662 23.625C12.0293 23.625 9 26.6543 9 30.3912H10.5C10.5 27.4828 12.8578 25.125 15.7662 25.125V23.625ZM23.625 14.625C23.625 16.9032 21.7782 18.75 19.5 18.75V20.25C22.6066 20.25 25.125 17.7316 25.125 14.625H23.625ZM19.5 18.75C17.2218 18.75 15.375 16.9032 15.375 14.625H13.875C13.875 17.7316 16.3934 20.25 19.5 20.25V18.75ZM15.375 14.625C15.375 12.3468 17.2218 10.5 19.5 10.5V9C16.3934 9 13.875 11.5184 13.875 14.625H15.375ZM19.5 10.5C21.7782 10.5 23.625 12.3468 23.625 14.625H25.125C25.125 11.5184 22.6066 9 19.5 9V10.5ZM33.375 19.5C33.375 27.163 27.163 33.375 19.5 33.375V34.875C27.9914 34.875 34.875 27.9914 34.875 19.5H33.375ZM19.5 33.375C11.837 33.375 5.625 27.163 5.625 19.5H4.125C4.125 27.9914 11.0086 34.875 19.5 34.875V33.375ZM5.625 19.5C5.625 11.837 11.837 5.625 19.5 5.625V4.125C11.0086 4.125 4.125 11.0086 4.125 19.5H5.625ZM19.5 5.625C27.163 5.625 33.375 11.837 33.375 19.5H34.875C34.875 11.0086 27.9914 4.125 19.5 4.125V5.625Z" fill="#"/>
</svg>
